<svg xmlns="http://www.w3.org/2000/svg" viewBox="0 0 511.859 36.011"><defs><style>.cls-1,.cls-2{fill:#fff;}.cls-2{fill-rule:evenodd;}</style></defs><g id="Capa_2" data-name="Capa 2"><g id="Portada_1_y_8" data-name="Portada 1 y 8"><path class="cls-1" d="M78.411,32.918a2.885,2.885,0,0,0-1-.244l-.627-.054a1.082,1.082,0,0,1-.711-.28.759.759,0,0,1-.24-.551.993.993,0,0,1,.547-.892,1.7,1.7,0,0,1,1.4.007.992.992,0,0,1,.4.395,1.088,1.088,0,0,1,.127.512h.758a1.7,1.7,0,0,0-.251-.935,1.66,1.66,0,0,0-.7-.609,2.581,2.581,0,0,0-2.081,0,1.729,1.729,0,0,0-.7.608,1.625,1.625,0,0,0-.25.907,1.354,1.354,0,0,0,.449,1.062,1.98,1.98,0,0,0,1.2.465l.627.054a1.712,1.712,0,0,1,.881.283.7.7,0,0,1,.3.578.987.987,0,0,1-.154.532,1.084,1.084,0,0,1-.48.4,2,2,0,0,1-.836.15,1.877,1.877,0,0,1-.871-.17,1.061,1.061,0,0,1-.456-.427A1.092,1.092,0,0,1,75.6,34.2h-.757a1.686,1.686,0,0,0,.263.93,1.762,1.762,0,0,0,.758.642,2.806,2.806,0,0,0,1.2.234,2.85,2.85,0,0,0,1.168-.225,1.816,1.816,0,0,0,.78-.628,1.573,1.573,0,0,0,.278-.922,1.349,1.349,0,0,0-.227-.787,1.62,1.62,0,0,0-.651-.527Zm4.222.415h2.523v-.682H82.633V30.89h2.686v-.682H81.875v5.661H85.4v-.682H82.633V33.333Zm7.653.427H92.12v.951a2.1,2.1,0,0,1-.476.347,2.434,2.434,0,0,1-1.158.267,2.382,2.382,0,0,1-.854-.147,1.87,1.87,0,0,1-.677-.438,1.978,1.978,0,0,1-.444-.729,2.983,2.983,0,0,1-.159-1.019,2.733,2.733,0,0,1,.146-.923,2.1,2.1,0,0,1,.414-.705,1.816,1.816,0,0,1,.638-.454,2.133,2.133,0,0,1,1.621,0,1.611,1.611,0,0,1,.63.472,1.49,1.49,0,0,1,.31.786h.774a2.239,2.239,0,0,0-.387-1.106,2.29,2.29,0,0,0-.881-.745,2.855,2.855,0,0,0-1.254-.267,2.78,2.78,0,0,0-1.168.237,2.568,2.568,0,0,0-.877.644,2.9,2.9,0,0,0-.55.916,2.969,2.969,0,0,0-.19,1.05v.17a3.223,3.223,0,0,0,.209,1.174,2.8,2.8,0,0,0,.591.935,2.609,2.609,0,0,0,.918.612,3.106,3.106,0,0,0,1.19.217,3.219,3.219,0,0,0,1.371-.278,2.6,2.6,0,0,0,.974-.775V33.758h.48v-.635H90.286v.637Zm9.238-.047a1.833,1.833,0,0,1-.183.842,1.288,1.288,0,0,1-.533.558,1.977,1.977,0,0,1-1.731,0,1.305,1.305,0,0,1-.537-.562,1.833,1.833,0,0,1-.181-.833V30.21H95.6v3.412a2.791,2.791,0,0,0,.267,1.253,1.929,1.929,0,0,0,.789.838,2.939,2.939,0,0,0,2.579,0,1.906,1.906,0,0,0,.781-.838,2.818,2.818,0,0,0,.264-1.253V30.21h-.758v3.5Zm6.854-.461a1.348,1.348,0,0,0,.627-.542,1.614,1.614,0,0,0,.21-.842v-.124a1.615,1.615,0,0,0-.21-.841,1.321,1.321,0,0,0-.627-.539,2.566,2.566,0,0,0-1.044-.187h-2.2v5.692h.758V33.442h1.447c.057,0,.109,0,.165-.007l1.073,2.434h.843L106.251,33.3c.043-.017.088-.029.127-.049Zm-.9-.485h-1.594V30.845h1.594a.93.93,0,0,1,.72.26,1.16,1.16,0,0,1,.007,1.4.934.934,0,0,1-.727.26Zm9.122-1.778a2.693,2.693,0,0,0-.91-.679,3.38,3.38,0,0,0-2.576,0,2.7,2.7,0,0,0-.909.679,2.837,2.837,0,0,0-.541.935,3.069,3.069,0,0,0-.178,1.016v.17a2.956,2.956,0,0,0,.174.969,3.11,3.11,0,0,0,.53.946,2.631,2.631,0,0,0,.905.713,3.29,3.29,0,0,0,2.615,0,2.639,2.639,0,0,0,.9-.713,3.131,3.131,0,0,0,.53-.946,2.93,2.93,0,0,0,.174-.969v-.17a3.093,3.093,0,0,0-.177-1.016,2.857,2.857,0,0,0-.541-.935Zm-.2,2.9a2.289,2.289,0,0,1-.426.729,2.009,2.009,0,0,1-.677.508,2.23,2.23,0,0,1-1.788,0,2.005,2.005,0,0,1-.676-.508,2.3,2.3,0,0,1-.427-.729,2.5,2.5,0,0,1-.147-.856,2.593,2.593,0,0,1,.147-.883,2.209,2.209,0,0,1,.427-.725,1.95,1.95,0,0,1,.676-.492,2.334,2.334,0,0,1,1.788,0,1.98,1.98,0,0,1,.677.492,2.187,2.187,0,0,1,.426.725,2.585,2.585,0,0,1,.147.883A2.417,2.417,0,0,1,114.4,33.889Zm7.315-.441a1.6,1.6,0,0,0-.65-.528,2.847,2.847,0,0,0-1-.244l-.626-.054a1.078,1.078,0,0,1-.711-.28.757.757,0,0,1-.24-.551.99.99,0,0,1,.546-.892,1.7,1.7,0,0,1,1.4.007.986.986,0,0,1,.4.395,1.074,1.074,0,0,1,.128.512h.757a1.7,1.7,0,0,0-.251-.936,1.665,1.665,0,0,0-.7-.608,2.581,2.581,0,0,0-2.081,0,1.712,1.712,0,0,0-.7.608,1.614,1.614,0,0,0-.251.906,1.355,1.355,0,0,0,.45,1.063,1.977,1.977,0,0,0,1.2.465l.627.054a1.719,1.719,0,0,1,.882.283.7.7,0,0,1,.3.578.978.978,0,0,1-.154.532,1.076,1.076,0,0,1-.48.394,1.987,1.987,0,0,1-.836.151,1.875,1.875,0,0,1-.87-.17,1.058,1.058,0,0,1-.457-.427,1.094,1.094,0,0,1-.136-.512H117.5a1.689,1.689,0,0,0,.263.93,1.762,1.762,0,0,0,.758.642,2.809,2.809,0,0,0,1.2.234,2.85,2.85,0,0,0,1.168-.225,1.819,1.819,0,0,0,.781-.628,1.581,1.581,0,0,0,.277-.923,1.343,1.343,0,0,0-.227-.786Z"/><path class="cls-1" d="M161.044,6.727h-2.686a.2.2,0,0,0-.167.094l-1.334,2.135a.108.108,0,0,1-.19-.01,3.78,3.78,0,0,0-3.829-2.361c-2.993,0-4.745,2.388-4.745,5.832V14.05c0,3.649,1.75,5.931,4.745,5.931a3.947,3.947,0,0,0,3.824-2.379.109.109,0,0,1,.188,0l1.341,2.152a.2.2,0,0,0,.169.094h2.686a.109.109,0,0,0,.109-.11V6.835a.109.109,0,0,0-.109-.11Zm-6.421,9.7a1.94,1.94,0,0,1-2.138-1.683,7.565,7.565,0,0,1-.09-1.505,8.774,8.774,0,0,1,.115-1.43,1.937,1.937,0,0,1,2.112-1.648,1.9,1.9,0,0,1,2.12,1.881v2.459a1.874,1.874,0,0,1-2.12,1.926ZM146.641,1.346h-4.186a.109.109,0,0,0-.109.11v7.2a.11.11,0,0,1-.206.051,3.748,3.748,0,0,0-3.707-2.118c-2.993,0-4.745,2.387-4.745,5.831v1.634c0,3.649,1.75,5.93,4.745,5.93a3.944,3.944,0,0,0,3.823-2.378.109.109,0,0,1,.188-.006l1.342,2.152a.2.2,0,0,0,.168.094h2.687a.109.109,0,0,0,.109-.11V1.456A.109.109,0,0,0,146.641,1.346Zm-4.3,13.293a2.172,2.172,0,0,1-4.255.11,7.565,7.565,0,0,1-.09-1.505,8.894,8.894,0,0,1,.114-1.43,1.938,1.938,0,0,1,2.112-1.648,1.893,1.893,0,0,1,2.117,1.871v2.6ZM68.505,11.905c-1.649-.28-2.179-.522-2.163-1.258v-.032c.014-.634.533-1.291,1.694-1.269,1.073.027,1.59.6,1.6,1.264l0,.459a.109.109,0,0,0,.11.108h3.89a.109.109,0,0,0,.109-.106l.006-.189c.059-2.672-2.318-4.483-5.64-4.557-3.274-.073-5.871,1.628-5.929,4.186l0,.178c-.06,2.669,2.367,3.456,5.423,4.029v0c1.458.281,2.36.328,2.341,1.186v.068c-.022.932-.908,1.226-2.067,1.2-1.023-.023-1.884-.485-1.965-1.413l-.021-.272a.109.109,0,0,0-.11-.1H61.86a.11.11,0,0,0-.109.11c0,2.924,2.468,4.56,5.968,4.639,3.238.072,6.329-.938,6.4-4.081l.008-.347c.059-2.669-2.5-3.279-5.619-3.807ZM81.764,6.489c-3.566,0-6.544,2.033-6.544,5.858V14.14c0,3.825,2.9,5.841,6.544,5.841,3.326,0,5.916-1.443,6.423-4.127a.113.113,0,0,0-.109-.131H83.743a.108.108,0,0,0-.093.056,2.07,2.07,0,0,1-1.9.926,1.912,1.912,0,0,1-2.117-1.685c0-.015,0-.21,0-.5a.109.109,0,0,1,.109-.11h8.432a.108.108,0,0,0,.109-.109V12.347c0-3.825-2.95-5.858-6.516-5.858Zm2.02,5.745H79.733a.109.109,0,0,1-.109-.11v-.412a2.159,2.159,0,0,1,4.238-.234s.016.264.03.641a.11.11,0,0,1-.109.113Zm33.561-5.507h-4.186a.109.109,0,0,0-.109.11v7.475a2.156,2.156,0,0,1-2.135,2.165,2.1,2.1,0,0,1-2.119-2.344v-7.3a.109.109,0,0,0-.109-.11H104.5a.109.109,0,0,0-.109.11v8.642a4.37,4.37,0,0,0,4.548,4.5A4.8,4.8,0,0,0,113.2,17.8a.108.108,0,0,1,.181.005l1.209,1.94a.2.2,0,0,0,.168.094h2.581a.109.109,0,0,0,.109-.11V6.835a.109.109,0,0,0-.109-.11ZM127.8,6.585a4.8,4.8,0,0,0-4.264,2.179.108.108,0,0,1-.181,0L122.12,6.779a.111.111,0,0,0-.093-.052H119.4a.11.11,0,0,0-.11.11v12.9a.11.11,0,0,0,.11.11h4.185a.109.109,0,0,0,.109-.11V12.309a2.19,2.19,0,0,1,2.135-2.216,2.1,2.1,0,0,1,2.119,2.344v7.3a.109.109,0,0,0,.109.11h4.186a.109.109,0,0,0,.109-.11V11.091A4.371,4.371,0,0,0,127.8,6.585Zm-25.232.142H99.881a.2.2,0,0,0-.167.094L98.38,8.958a.107.107,0,0,1-.188-.011,3.78,3.78,0,0,0-3.831-2.362c-2.993,0-4.745,2.388-4.745,5.832V14.05c0,3.649,1.75,5.931,4.745,5.931a3.913,3.913,0,0,0,3.73-2.177.109.109,0,0,1,.2.055v.829c0,1.5-.312,2.635-2.32,2.635H91.891a.109.109,0,0,0-.106.137l.8,3.1a.11.11,0,0,0,.106.083h4.157c3.358,0,5.833-.779,5.833-4.8V6.835a.109.109,0,0,0-.109-.11Zm-4.3,7.9a2.171,2.171,0,0,1-4.255.122,7.565,7.565,0,0,1-.09-1.505,8.774,8.774,0,0,1,.115-1.43,1.937,1.937,0,0,1,2.111-1.648,1.892,1.892,0,0,1,2.117,1.881v2.581Zm-56.34,1.9H40.839a.626.626,0,0,1-.625-.627V1.456a.109.109,0,0,0-.109-.11H35.919a.109.109,0,0,0-.109.11V17.511a2.266,2.266,0,0,0,2.28,2.33h3.831a.109.109,0,0,0,.109-.11v-3.1a.108.108,0,0,0-.109-.109ZM26.652,21.268H5.885a.228.228,0,0,1-.227-.228V.228A.225.225,0,0,0,5.432,0H.227A.228.228,0,0,0,0,.228V17.412a6.149,6.149,0,0,0,1.678,4.224L3.03,23.068q.407.427.833.834l1.43,1.356A6.125,6.125,0,0,0,9.507,26.94H26.654a.229.229,0,0,0,.228-.229V21.5a.228.228,0,0,0-.228-.228Zm0-7.088H13.44a.709.709,0,0,1,0-1.418h7.072A6.37,6.37,0,0,0,26.4,8.824a2.628,2.628,0,0,0-.523-2.806L23.853,3.875c-.27-.287-.55-.567-.836-.838L21.589,1.684A6.118,6.118,0,0,0,17.373,0H7.3a.228.228,0,0,0-.227.228V5.444a.228.228,0,0,0,.227.228h13.2a.709.709,0,1,1,.009,1.418H13.442a6.373,6.373,0,0,0-6.367,6.381v6.152a.228.228,0,0,0,.227.228H26.654a.228.228,0,0,0,.228-.228V14.408a.228.228,0,0,0-.228-.228ZM55.6,6.729H52.916a.2.2,0,0,0-.167.093L51.415,8.958a.108.108,0,0,1-.19-.011A3.779,3.779,0,0,0,47.4,6.587c-2.993,0-4.744,2.387-4.744,5.832v1.633c0,3.649,1.75,5.93,4.744,5.93A3.947,3.947,0,0,0,51.22,17.6a.109.109,0,0,1,.188,0l1.341,2.152a.2.2,0,0,0,.169.093H55.6a.109.109,0,0,0,.11-.109V6.835a.11.11,0,0,0-.11-.11Zm-6.421,9.705a1.941,1.941,0,0,1-2.139-1.684,7.659,7.659,0,0,1-.089-1.5,8.781,8.781,0,0,1,.114-1.43,1.937,1.937,0,0,1,2.112-1.648A1.9,1.9,0,0,1,51.3,12.049v2.459a1.874,1.874,0,0,1-2.121,1.926Z"/><path class="cls-1" d="M243.97,15.08c.295-1.225.554-2.355.857-3.472.034-.125.32-.25.493-.257a19.5,19.5,0,0,1,2.229,0c.6.047.767-.248.844-.755a17.513,17.513,0,0,1,.4-2.117,6.115,6.115,0,0,1,6.089-4.655c1.245.009,2.489.16,3.732.265.527.045.715.285.522.85-.313.918-.543,1.864-.814,2.82-.516-.085-.987-.173-1.46-.24a2.059,2.059,0,0,0-2.3,1.1,12.339,12.339,0,0,0-.763,2.206c-.153.532.253.514.607.514q3.506,0,7.009,0c.83,0,.833,0,.665.808-.541,2.587-1.089,5.173-1.62,7.762a8.512,8.512,0,0,0-.172,1.385,2.012,2.012,0,0,0,2.395,1.992,4.488,4.488,0,0,0,4.057-3.86c.541-2.437,1.042-4.882,1.529-7.33.107-.538.277-.793.892-.773,1.524.048,3.052.016,4.695.016-.159.8-.3,1.534-.452,2.267-.927,4.452-1.863,8.9-2.773,13.356-.08.389-.241.476-.59.472-1.253-.013-2.506-.015-3.759,0-.462.005-.59-.127-.479-.606a7.027,7.027,0,0,0,.153-2.06c-.156.149-.324.286-.466.447a7.3,7.3,0,0,1-5.676,2.57c-3.182,0-4.83-2-5.039-4.919a26.008,26.008,0,0,1,.816-6.345c.259-1.477.56-1.459-1.161-1.442-1.8.018-1.489-.208-1.81,1.354-.717,3.48-1.437,6.959-2.129,10.444-.083.419-.228.578-.652.573-1.444-.017-2.889-.013-4.333,0-.443,0-.589-.1-.48-.6.806-3.7,1.566-7.408,2.377-11.106.124-.567-.057-.675-.545-.668C245.949,15.09,245.037,15.08,243.97,15.08Z"/><path class="cls-1" d="M304.147,24.875c-.145.166-.292.33-.435.5a6.436,6.436,0,0,1-7,2.142,5.743,5.743,0,0,1-4.281-5.316,11.265,11.265,0,0,1,2.43-8.769,6.752,6.752,0,0,1,4.974-2.486,6.6,6.6,0,0,1,5,1.357,17.9,17.9,0,0,1,1.471,1.666c.17-.7.329-1.318.465-1.939.354-1.611.684-3.227,1.059-4.833.05-.214.3-.538.468-.542,1.628-.041,3.258-.025,4.981-.025-.317,1.442-.613,2.8-.914,4.155q-1.591,7.153-3.177,14.308a11.472,11.472,0,0,0-.211,1.7c-.029.434-.163.657-.647.649-1.273-.023-2.548-.015-3.822,0-.409,0-.577-.09-.466-.559.149-.627.2-1.276.3-1.916Zm-3.44-1.242a7.462,7.462,0,0,0,1.053-.175,5.266,5.266,0,0,0,2.937-6.844,2.638,2.638,0,0,0-2.372-1.551,3.331,3.331,0,0,0-2.7,1.038,5.609,5.609,0,0,0-1.368,5.7A2.3,2.3,0,0,0,300.707,23.633Z"/><path class="cls-1" d="M280.489,13.843c.448-.4.88-.829,1.346-1.211a6.913,6.913,0,0,1,6.613-1.417,4.851,4.851,0,0,1,3.2,4.413,25.561,25.561,0,0,1-.812,6.531c-.305,1.577-.667,3.144-.967,4.722-.08.419-.251.574-.669.569q-2.2-.021-4.395,0c-.476,0-.624-.106-.51-.632.534-2.48,1.03-4.968,1.514-7.458A11.224,11.224,0,0,0,286,17.53a1.911,1.911,0,0,0-1.985-2.086,3.945,3.945,0,0,0-3.975,2.707,27.922,27.922,0,0,0-1.016,3.916q-.548,2.412-1,4.843c-.084.448-.3.542-.69.539-1.422-.011-2.845-.015-4.268,0-.5.006-.6-.14-.493-.645.945-4.511,1.86-9.029,2.777-13.546.092-.455.153-.918.207-1.379a.529.529,0,0,1,.619-.548c1.316.017,2.633.021,3.949,0,.527-.009.6.206.5.666-.123.587-.177,1.189-.261,1.784Z"/><path class="cls-1" d="M314.641,15.413c.135-.961.262-2.052.461-3.129a.9.9,0,0,1,.539-.591,24.412,24.412,0,0,1,3.409-.686,13.665,13.665,0,0,1,4.86.212,5.055,5.055,0,0,1,3.956,6.158c-.455,2.753-1.069,5.479-1.6,8.219-.089.456-.1.93-.222,1.375-.048.179-.292.428-.454.433-1.188.036-2.379.012-3.568.024-.453,0-.458-.264-.425-.592.052-.515.1-1.031.141-1.546l-.261-.164a2.149,2.149,0,0,1-.227.443,5.881,5.881,0,0,1-4.658,2.1,10.431,10.431,0,0,1-2.946-.317c-2.219-.658-3.027-2.541-2.843-4.679.235-2.725,2.091-4.058,4.45-4.813a12.663,12.663,0,0,1,5.394-.562,13.615,13.615,0,0,0,1.592.032c.571,0,.8-.259.713-.826a2.146,2.146,0,0,0-1.357-1.715,4.833,4.833,0,0,0-2.87-.308C317.359,14.735,316.017,15.094,314.641,15.413Zm3.694,8.784c.124-.021.4-.049.663-.115a4.3,4.3,0,0,0,3.179-3.152c.191-.624.063-.748-.58-.773-.486-.019-.971-.075-1.457-.083a5.394,5.394,0,0,0-3.206.818,1.811,1.811,0,0,0-.956,1.417C315.921,23.437,316.8,24.19,318.335,24.2Z"/><path class="cls-1" d="M335.972,11.218l-.55,3.208.127.067c.13-.192.265-.381.388-.577a5.572,5.572,0,0,1,4.1-3.006,9.56,9.56,0,0,1,2.428.277.487.487,0,0,1,.253.405c-.346,1.457-.724,2.906-1.116,4.446a4.182,4.182,0,0,0-3.463-.521,4.3,4.3,0,0,0-3.147,3.5c-.621,2.524-1.135,5.075-1.656,7.622-.116.566-.289.824-.93.8-1.523-.052-3.048-.017-4.676-.017.22-1.076.422-2.082.631-3.086q1.173-5.649,2.347-11.3c.085-.413.076-.849.191-1.251.063-.215.293-.541.455-.545C332.861,11.2,334.365,11.218,335.972,11.218Z"/><g id="surface1"><path class="cls-2" d="M477.456,13.47l1.036,1.659c1.2-.634,2.755-2,3.84-.414l-.109,1.346c-2.845,0-5.7,1.895-5.7,4.87,0,1.334.78,2.591,1.969,2.591,1.787,0,2.15-1.084,3.523-1.451.3,1.282,1.665,1.243,2.665,1.242l.151-2.087-.351-.4.541-6.215c0-2.229-2.255-2.59-3.938-2.59A6.531,6.531,0,0,0,477.456,13.47Zm1.761,6.218V20.1c0,.5.285,1.14.726,1.14h.207c1.5,0,1.865-2,1.865-3.523-1.092,0-2.8,1.122-2.8,1.969"/><path class="cls-2" d="M434.394,10.665l.058.318,3.579,0-1.3,12.232,3.155.005,1.3-11.818v-.415h3.731v-.414l.312-2.487-10.523-.007-.312,2.59"/><path class="cls-2" d="M466.679,21.139c0,1.263.465,2.383,1.969,2.383,1.852,0,2.237-1.416,3.519-2.28l-.2,1.969,2.728,0L475.9,12.227h-2.8l.014.416-.74,6.941a2.865,2.865,0,0,1-2.072,1.243.717.717,0,0,1-.774-.626l.878-7.974-2.642-.013s-1.089,8.2-1.089,8.925"/><path class="cls-2" d="M494.347,19.688c0,4.292,4.092,4.371,7.15,3.108V20.517c-2.709,1.27-4.771.986-4.456-2.176h4.973c0-3.267.793-6.321-3.523-6.321C494.827,12.02,494.347,17.034,494.347,19.688Zm2.9-3h2.591c0-.9.125-2.788-.957-2.788-1.585,0-1.6,1.263-1.634,2.788"/><path class="cls-2" d="M442.949,19.481c0,4.708,3.7,4.421,7.047,3.315V20.621c-.969.021-4.457,1.632-4.457-.622V18.341h4.97c.188-3.213.751-6.321-3.415-6.321C443.46,12.02,442.949,16.81,442.949,19.481Zm2.9-2.8,2.474,0c.064-.909.536-2.8-.92-2.8-1.476,0-1.554,1.737-1.554,2.8"/><path class="cls-2" d="M468.545,10.051h34.3c-.209-2.5-8.009-2.176-10.156-2.176-3.577,0-22.963,1.355-24.143,2.176"/><path class="cls-2" d="M487.909,23.213l2.646-.024,4-10.962-2.623.024-2.247,6.3-.623-6.321-2.823,0,1.671,10.982"/><path class="cls-2" d="M459.011,15.129c0,2.74,3.834,3.886,3.834,5.077,0,2.109-2.643.618-3.257-.241l-1.51,2a4.8,4.8,0,0,0,3.109,1.554c2.168,0,4.352-1.4,4.352-3.834,0-2.678-4.041-3.337-4.041-4.767,0-1.686,2.4-.4,3.008,0l1.344-1.971a7.128,7.128,0,0,0-3.42-.932c-1.577,0-3.419,1.607-3.419,3.109"/><path class="cls-2" d="M455.073,14.507l.207-2.28h-2.5l-1.23,10.985,2.756,0,.663-6.42a5.026,5.026,0,0,1,3.167-1.042l.356-3.725c-2.061,0-2.535,1.839-3.419,2.487"/><path class="cls-2" d="M440.1,1.346h57.2A14.5,14.5,0,0,1,511.859,15.7,14.5,14.5,0,0,1,497.3,30.05H440.1A14.5,14.5,0,0,1,425.54,15.7,14.5,14.5,0,0,1,440.1,1.346Zm0,1.469h57.2A13.026,13.026,0,0,1,510.39,15.7,13.026,13.026,0,0,1,497.3,28.581H440.1A13.026,13.026,0,0,1,427.009,15.7,13.026,13.026,0,0,1,440.1,2.815"/></g></g></g></svg>