<svg xmlns="http://www.w3.org/2000/svg" viewBox="0 0 161.169 12.636"><defs><style>.cls-1{fill:#fff;}</style></defs><g id="Capa_2" data-name="Capa 2"><g id="Portada_1_y_8" data-name="Portada 1 y 8"><g id="Layer_2" data-name="Layer 2"><g id="Capa_1-2" data-name="Capa 1"><path class="cls-1" d="M6.4,12.559H6.054a6.2,6.2,0,0,1,0-12.387H6.4v.969H6.065a5.218,5.218,0,0,0,0,10.431H6.4Z"/><path class="cls-1" d="M42.237,12.557h-.351A6.194,6.194,0,0,1,41.9.172h.352v.969L41.9,1.15a5.218,5.218,0,0,0-.368,10.411v-4.6h-.744V5.991h1.724v6.566Z"/><path class="cls-1" d="M14.5,12.55h-1l-.948-3.933H9.641L8.693,12.55H7.681L10.669.172h.852ZM9.876,7.641h2.439L11.1,2.577Z"/><path class="cls-1" d="M35.145,12.55h-1L33.2,8.617h-2.91l-.958,3.933h-1L31.3.172h.854ZM30.511,7.641H32.95L31.731,2.577Z"/><polygon class="cls-1" points="50.788 12.636 49.809 12.636 49.809 8.361 45.293 2.162 45.293 12.636 44.313 12.636 44.313 0.265 45.123 0.265 49.809 6.699 49.809 0.265 50.788 0.265 50.788 12.636"/><polygon class="cls-1" points="62.487 12.55 61.507 12.55 61.507 8.274 56.991 2.076 56.991 12.55 56.011 12.55 56.011 0.179 56.821 0.179 61.507 6.613 61.507 0.179 62.487 0.179 62.487 12.55"/><rect class="cls-1" x="52.976" y="0.179" width="0.975" height="12.371"/><path class="cls-1" d="M67.963,12.541A3.347,3.347,0,0,1,64.57,9.326v-5.9a3.4,3.4,0,0,1,6.787-.019V9.317a3.4,3.4,0,0,1-3.394,3.224m0-11.377a2.432,2.432,0,0,0-2.425,2.409V9.25a2.423,2.423,0,0,0,4.843-.082V3.454a2.422,2.422,0,0,0-2.418-2.29"/><path class="cls-1" d="M18.466,12.636A3.15,3.15,0,0,1,15.32,9.482V9.145h.973v.337a2.169,2.169,0,1,0,4.336.142c0-.047,0-.094,0-.142a2.157,2.157,0,0,0-.077-.57l-.1-.279a2,2,0,0,0-.165-.314,3.879,3.879,0,0,0-.654-.652l-.068-.047c-.27-.214-.593-.465-.968-.723-.621-.445-1.233-.848-1.559-1.064l-.149-.1a6.378,6.378,0,0,1-.559-.465,3.907,3.907,0,0,1-.272-.37,2.937,2.937,0,0,1-.435-1,3,3,0,0,1-.077-.668,2.968,2.968,0,0,1,5.935,0v.564h-.971V3.228a1.988,1.988,0,0,0-3.975,0,1.871,1.871,0,0,0,.016.249s.019.135.035.2v.025a2.337,2.337,0,0,0,.3.668,2.049,2.049,0,0,0,.331.371l.023.021a2.34,2.34,0,0,0,.286.2l.026.014L19.47,6.31c.265.193.5.372.7.538l.037.028a3.18,3.18,0,0,1,.868.87,1.789,1.789,0,0,1,.34.649,3.148,3.148,0,0,1-2.947,4.241"/><polygon class="cls-1" points="25.663 12.55 24.683 12.55 24.683 1.159 21.941 1.159 21.941 0.179 28.47 0.179 28.47 1.159 25.663 1.159 25.663 12.55"/></g></g><path class="cls-1" d="M127.245,11.274a5.262,5.262,0,0,1-1.552-2.206,7.925,7.925,0,0,1-.518-2.886,9.194,9.194,0,0,1,.218-1.988,7.444,7.444,0,0,1,.654-1.743,5.824,5.824,0,0,1,1.117-1.443A5.638,5.638,0,0,1,128.717,0h-8.742a4.558,4.558,0,0,1,.789.6,4.027,4.027,0,0,1,.545.79,4.143,4.143,0,0,1,.326.925h.026c.026.218.055.518.081.872.027.3.027.708.027,1.2V7.161c0,.98.026,1.771.054,2.37a7.463,7.463,0,0,0,.109,1.2v.026a2.574,2.574,0,0,0,.164.626c.11.218.219.435.326.625l.409.626h6.754a1.391,1.391,0,0,0-.3-.11A6.472,6.472,0,0,1,127.245,11.274Z"/><path class="cls-1" d="M117.823,2.7H117.8a2.4,2.4,0,0,0-.873-.435,7.189,7.189,0,0,0-1.416-.136h-.3a5.789,5.789,0,0,0-1.034.109,1.934,1.934,0,0,0-.79.3,1.871,1.871,0,0,0-.518.518,4.6,4.6,0,0,0-.409,1.034h-3.675l.164-.68a5.713,5.713,0,0,1,.463-1.307,4.918,4.918,0,0,1,.708-1.089,3.963,3.963,0,0,1,1.035-.818L111.4.028h-8.169A4.555,4.555,0,0,0,99.36,2.18,3.007,3.007,0,0,0,98.107.6,4.193,4.193,0,0,0,95.82.028,4.321,4.321,0,0,0,93.587.6a4.454,4.454,0,0,0-1.579,1.443V0H90.13V12.636h2.123v-6.4a7.805,7.805,0,0,1,.326-2.56A2.532,2.532,0,0,1,93.7,2.314a2.955,2.955,0,0,1,1.662-.464,1.966,1.966,0,0,1,1.688.68,3.458,3.458,0,0,1,.518,2.1v8.007h2.123V5.473a3.782,3.782,0,0,1,.873-2.751,2.935,2.935,0,0,1,2.206-.872,2.488,2.488,0,0,1,1.279.326,1.707,1.707,0,0,1,.735.9,3.416,3.416,0,0,1,.19,1.117v8.442H110.8a4.042,4.042,0,0,1-.818-.518,3.857,3.857,0,0,1-1.089-1.334,3.566,3.566,0,0,1-.381-1.688,4.333,4.333,0,0,1,.136-1.034,3.334,3.334,0,0,1,.435-.953,4.169,4.169,0,0,1,.626-.79,4.337,4.337,0,0,1,.789-.6,4.787,4.787,0,0,1,.9-.463,7.935,7.935,0,0,1,.98-.3c.273-.055.572-.136.953-.19.326-.027.763-.081,1.225-.136.245-.026.435-.055.653-.081.681-.081,1.28-.164,1.8-.245.49-.081.872-.164,1.224-.245V3.977A1.6,1.6,0,0,0,117.823,2.7Z"/><path class="cls-1" d="M115.208,7.544l-.19.026c-.464.055-.872.136-1.2.19a5,5,0,0,0-.709.191,1.644,1.644,0,0,0-.38.218.783.783,0,0,0-.274.245c-.054.109-.109.19-.163.3a1.124,1.124,0,0,0-.027.326.893.893,0,0,0,.109.463.847.847,0,0,0,.355.409,1.445,1.445,0,0,0,.653.3,3.8,3.8,0,0,0,1.035.136,6.986,6.986,0,0,0,.789-.054c.136-.027.245-.055.381-.082a3.745,3.745,0,0,0,.979-.326,4.269,4.269,0,0,0,.79-.518,3.073,3.073,0,0,0,.518-.653,3.373,3.373,0,0,0,.218-.681c.027-.3.055-.625.082-1.034-.274.081-.545.136-.873.219C116.706,7.325,116,7.434,115.208,7.544Z"/><path class="cls-1" d="M144.755.435a5.072,5.072,0,0,0-1.362,1.717V0h-7.242a4.452,4.452,0,0,1,.49.3,4.843,4.843,0,0,1,1.417,1.362,5.056,5.056,0,0,1,.789,1.823l.136.6-3.759.026a2.707,2.707,0,0,0-.381-.9,2.406,2.406,0,0,0-.572-.6,2.9,2.9,0,0,0-.79-.354,3.722,3.722,0,0,0-.979-.136,4.1,4.1,0,0,0-1.444.245,3.048,3.048,0,0,0-1.143.68,3.244,3.244,0,0,0-.626.926c-.026.081-.054.163-.081.245a6.2,6.2,0,0,0-.245,1.851,6.345,6.345,0,0,0,.245,1.907c.027.081.055.19.081.273a3.064,3.064,0,0,0,.6.9,3.058,3.058,0,0,0,1.089.68,3.807,3.807,0,0,0,1.389.245,3.938,3.938,0,0,0,1.172-.164,2.831,2.831,0,0,0,.9-.463,1.985,1.985,0,0,0,.626-.709,5.524,5.524,0,0,0,.381-1.334h3.785l-.136.681a5.606,5.606,0,0,1-.79,2.042,5.515,5.515,0,0,1-1.5,1.579,5.819,5.819,0,0,1-1.717.925h8.524V6.155a7.664,7.664,0,0,1,.354-2.423,2.183,2.183,0,0,1,.789-1.143,2.079,2.079,0,0,1,1.253-.409,4.645,4.645,0,0,1,1.553.19V.273A3.517,3.517,0,0,0,146.117,0,2.465,2.465,0,0,0,144.755.435Z"/><path class="cls-1" d="M159.236,1.334A5.994,5.994,0,0,0,155.316,0c-.152,0-.3.009-.446.018-.148-.009-.294-.018-.446-.018A6,6,0,0,0,150.5,1.334a6.193,6.193,0,0,0-1.933,4.983,6.4,6.4,0,0,0,1.634,4.712,5.723,5.723,0,0,0,4.22,1.607c.15,0,.3,0,.446-.016.148.009.3.016.446.016a5.723,5.723,0,0,0,4.22-1.607,6.4,6.4,0,0,0,1.633-4.712A6.186,6.186,0,0,0,159.236,1.334Z"/><path class="cls-1" d="M79.983,9.12V6.909h-2.2V5.727h2.2V3.516H81.2V5.727h2.189V6.909H81.2V9.12Z"/></g></g></svg>